<svg xmlns="http://www.w3.org/2000/svg" viewBox="0 0 48 48">

<circle cx="34.9" cy="28.2" r="2.2" fill="#f3efed"/>
<circle cx="31.5" cy="22.7" r="2.2" fill="#f3efed"/>
<circle cx="33.4" cy="32.8" r="2.2" fill="#f3efed"/>
<circle cx="32.3" cy="31.8" r="2.2" fill="#f3efed"/>
<circle cx="32.2" cy="31.1" r="2.2" fill="#f3efed"/>
<circle cx="34.6" cy="27.4" r="2.2" fill="#f3efed"/>
<circle cx="33.2" cy="28.6" r="2.2" fill="#f3efed"/>
<circle cx="30.8" cy="32.6" r="2.2" fill="#f3efed"/>
<circle cx="35.9" cy="30.0" r="2.2" fill="#f3efed"/>
<circle cx="33.3" cy="27.2" r="2.2" fill="#f3efed"/>
<circle cx="31.7" cy="31.2" r="2.2" fill="#f3efed"/>
<circle cx="32.3" cy="27.7" r="2.2" fill="#f3efed"/>
<circle cx="7.9" cy="36.0" r="2.2" fill="#f3efed"/>
<circle cx="7.0" cy="34.5" r="2.2" fill="#f3efed"/>
<circle cx="33.6" cy="28.5" r="2.2" fill="#f3efed"/>
<circle cx="32.9" cy="30.1" r="2.2" fill="#f3efed"/>
<circle cx="12.1" cy="16.2" r="2.2" fill="#f3efed"/>
<circle cx="11.9" cy="19.8" r="2.2" fill="#f3efed"/>
<circle cx="15.3" cy="28.4" r="2.2" fill="#f3efed"/>
<circle cx="32.3" cy="30.5" r="2.2" fill="#f3efed"/>
<circle cx="39.3" cy="27.0" r="2.2" fill="#f3efed"/>
<circle cx="24.0" cy="15.2" r="2.2" fill="#f3efed"/>
<circle cx="10.4" cy="14.3" r="2.2" fill="#f3efed"/>
<circle cx="32.0" cy="25.0" r="2.2" fill="#f3efed"/>
<circle cx="25.0" cy="19.6" r="2.2" fill="#f3efed"/>
<circle cx="21.8" cy="21.2" r="2.2" fill="#f3efed"/>
<circle cx="19.8" cy="27.1" r="2.2" fill="#f3efed"/>
<circle cx="15.0" cy="12.1" r="2.2" fill="#f3efed"/>
<circle cx="18.0" cy="14.8" r="2.2" fill="#f3efed"/>
<circle cx="20.2" cy="13.8" r="2.2" fill="#f3efed"/>
<circle cx="29.3" cy="19.6" r="2.2" fill="#f3efed"/>
<circle cx="17.7" cy="26.5" r="2.2" fill="#f3efed"/>
<circle cx="26.9" cy="24.4" r="2.2" fill="#f3efed"/>
<circle cx="23.7" cy="21.8" r="2.2" fill="#f3efed"/>
<circle cx="30.9" cy="20.8" r="2.2" fill="#f3efed"/>
<circle cx="41.1" cy="29.5" r="2.2" fill="#f3efed"/>
<circle cx="37.5" cy="24.5" r="2.2" fill="#f3efed"/>
<circle cx="37.1" cy="24.1" r="2.2" fill="#f3efed"/>
<circle cx="33.7" cy="22.6" r="2.2" fill="#f3efed"/>
<circle cx="36.9" cy="23.9" r="2.2" fill="#f3efed"/>
<circle cx="35.1" cy="23.7" r="2.2" fill="#f3efed"/>
<circle cx="36.6" cy="24.1" r="2.2" fill="#f3efed"/>
<circle cx="37.5" cy="24.4" r="2.2" fill="#f3efed"/>
<circle cx="37.2" cy="24.2" r="2.2" fill="#f3efed"/>
<circle cx="37.4" cy="25.4" r="2.2" fill="#f3efed"/>
<circle cx="36.5" cy="23.7" r="2.2" fill="#f3efed"/>
<circle cx="37.2" cy="24.0" r="2.2" fill="#f3efed"/>
<circle cx="36.1" cy="24.0" r="2.2" fill="#f3efed"/>
<circle cx="34.1" cy="24.1" r="2.2" fill="#f3efed"/>
<circle cx="36.5" cy="25.0" r="2.2" fill="#f3efed"/>
<circle cx="36.9" cy="24.9" r="2.2" fill="#f3efed"/>
<circle cx="30.4" cy="21.6" r="2.2" fill="#f3efed"/>
<circle cx="40.8" cy="27.7" r="2.2" fill="#f3efed"/>
<circle cx="35.9" cy="23.6" r="2.2" fill="#f3efed"/>
<circle cx="38.6" cy="26.0" r="2.2" fill="#f3efed"/>
<circle cx="38.6" cy="25.6" r="2.2" fill="#f3efed"/>
<circle cx="36.8" cy="24.6" r="2.2" fill="#f3efed"/>
<circle cx="39.2" cy="26.1" r="2.2" fill="#f3efed"/>
<circle cx="37.5" cy="26.1" r="2.2" fill="#f3efed"/>
<circle cx="37.2" cy="24.2" r="2.2" fill="#f3efed"/>
<circle cx="35.3" cy="23.0" r="2.2" fill="#f3efed"/>
<circle cx="37.0" cy="24.5" r="2.2" fill="#f3efed"/>
<circle cx="38.7" cy="26.1" r="2.2" fill="#f3efed"/>
<circle cx="37.0" cy="24.4" r="2.2" fill="#f3efed"/>
<circle cx="36.2" cy="23.2" r="2.2" fill="#f3efed"/>
<circle cx="10.4" cy="35.2" r="2.2" fill="#f3efed"/>
<circle cx="20.8" cy="26.1" r="2.2" fill="#f3efed"/>
<circle cx="17.8" cy="31.2" r="2.2" fill="#f3efed"/>
<circle cx="11.7" cy="28.6" r="2.2" fill="#f3efed"/>
<circle cx="20.8" cy="31.1" r="2.2" fill="#f3efed"/>
<circle cx="16.6" cy="29.1" r="2.2" fill="#f3efed"/>
<circle cx="21.5" cy="30.8" r="2.2" fill="#f3efed"/>
<circle cx="16.5" cy="28.4" r="2.2" fill="#f3efed"/>
<circle cx="13.4" cy="28.0" r="2.2" fill="#f3efed"/>
<circle cx="5.7" cy="22.9" r="2.2" fill="#f3efed"/>
<circle cx="17.0" cy="28.9" r="2.2" fill="#f3efed"/>
<circle cx="16.2" cy="29.9" r="2.2" fill="#f3efed"/>
<circle cx="16.0" cy="29.0" r="2.2" fill="#f3efed"/>
<circle cx="13.0" cy="26.8" r="2.2" fill="#f3efed"/>
<circle cx="18.7" cy="28.8" r="2.2" fill="#f3efed"/>
<circle cx="22.2" cy="19.3" r="2.2" fill="#f3efed"/>
<circle cx="30.7" cy="32.4" r="2.2" fill="#f3efed"/>
<circle cx="30.7" cy="33.2" r="2.2" fill="#f3efed"/>
<circle cx="35.9" cy="26.4" r="2.2" fill="#f3efed"/>
<circle cx="44.2" cy="30.4" r="2.2" fill="#f3efed"/>
<circle cx="28.3" cy="21.0" r="2.2" fill="#f3efed"/>
<circle cx="39.6" cy="27.3" r="2.2" fill="#f3efed"/>
<circle cx="21.6" cy="30.8" r="2.2" fill="#f3efed"/>
<circle cx="33.7" cy="29.1" r="2.2" fill="#f3efed"/>
<circle cx="29.2" cy="20.7" r="2.2" fill="#f3efed"/>
<circle cx="28.8" cy="22.1" r="2.2" fill="#f3efed"/>
<circle cx="27.3" cy="21.3" r="2.2" fill="#f3efed"/>
<circle cx="29.6" cy="21.3" r="2.2" fill="#f3efed"/>
<circle cx="28.7" cy="20.8" r="2.2" fill="#f3efed"/>
<circle cx="28.5" cy="20.2" r="2.2" fill="#f3efed"/>
<circle cx="30.0" cy="21.4" r="2.2" fill="#f3efed"/>
<circle cx="20.1" cy="28.8" r="2.2" fill="#f3efed"/>
<circle cx="31.4" cy="31.6" r="2.2" fill="#f3efed"/>
<circle cx="32.7" cy="33.8" r="2.2" fill="#f3efed"/>
<circle cx="32.7" cy="30.5" r="2.2" fill="#f3efed"/>
<circle cx="39.2" cy="29.2" r="2.2" fill="#f3efed"/>
<circle cx="36.8" cy="28.3" r="2.2" fill="#f3efed"/>
<circle cx="33.1" cy="31.2" r="2.2" fill="#f3efed"/>
<circle cx="32.4" cy="33.5" r="2.2" fill="#f3efed"/>
<circle cx="33.0" cy="29.6" r="2.2" fill="#f3efed"/>
<circle cx="32.6" cy="32.5" r="2.2" fill="#f3efed"/>
<circle cx="40.7" cy="29.1" r="2.2" fill="#f3efed"/>
<circle cx="35.3" cy="29.9" r="2.2" fill="#f3efed"/>
<circle cx="33.0" cy="30.8" r="2.2" fill="#f3efed"/>
<circle cx="34.4" cy="30.7" r="2.2" fill="#f3efed"/>
<circle cx="38.4" cy="25.6" r="2.2" fill="#f3efed"/>
<circle cx="34.2" cy="30.4" r="2.2" fill="#f3efed"/>
<circle cx="15.2" cy="16.5" r="2.2" fill="#f3efed"/>
<circle cx="33.9" cy="30.7" r="2.2" fill="#f3efed"/>
<circle cx="33.0" cy="30.9" r="2.2" fill="#f3efed"/>
<circle cx="31.9" cy="34.2" r="2.2" fill="#f3efed"/>
<circle cx="31.9" cy="33.6" r="2.2" fill="#f3efed"/>
<circle cx="23.0" cy="15.1" r="2.2" fill="#f3efed"/>
<circle cx="40.5" cy="28.7" r="2.2" fill="#f3efed"/>
<circle cx="20.3" cy="16.9" r="2.2" fill="#f3efed"/>
<circle cx="32.1" cy="33.3" r="2.2" fill="#f3efed"/>
<circle cx="32.4" cy="32.6" r="2.2" fill="#f3efed"/>
<circle cx="35.2" cy="30.7" r="2.2" fill="#f3efed"/>
<circle cx="32.4" cy="33.6" r="2.2" fill="#f3efed"/>
<circle cx="5.9" cy="31.0" r="2.2" fill="#f3efed"/>
<circle cx="6.2" cy="25.6" r="2.2" fill="#f3efed"/>
<circle cx="5.7" cy="29.2" r="2.2" fill="#f3efed"/>
<circle cx="6.4" cy="31.5" r="2.2" fill="#f3efed"/>
<circle cx="5.7" cy="29.9" r="2.2" fill="#f3efed"/>
<circle cx="6.2" cy="30.7" r="2.2" fill="#f3efed"/>
<circle cx="30.8" cy="21.3" r="2.2" fill="#f3efed"/>
<circle cx="28.0" cy="20.7" r="2.2" fill="#f3efed"/>
<circle cx="21.2" cy="26.1" r="2.2" fill="#f3efed"/>
<circle cx="30.4" cy="23.0" r="2.2" fill="#f3efed"/>
<circle cx="10.9" cy="35.0" r="2.2" fill="#f3efed"/>
<circle cx="14.7" cy="14.7" r="2.2" fill="#f3efed"/>
<circle cx="15.4" cy="12.0" r="2.2" fill="#f3efed"/>
<circle cx="12.8" cy="11.8" r="2.2" fill="#f3efed"/>
<circle cx="15.7" cy="12.9" r="2.2" fill="#f3efed"/>
<circle cx="13.8" cy="12.7" r="2.2" fill="#f3efed"/>
<circle cx="18.7" cy="18.6" r="2.2" fill="#f3efed"/>
<circle cx="27.7" cy="33.0" r="2.2" fill="#f3efed"/>
<circle cx="16.3" cy="25.0" r="2.2" fill="#f3efed"/>
<circle cx="13.7" cy="18.4" r="2.2" fill="#f3efed"/>
<circle cx="31.3" cy="31.8" r="2.2" fill="#f3efed"/>
<circle cx="11.6" cy="17.0" r="2.2" fill="#f3efed"/>
<circle cx="24.3" cy="23.4" r="2.2" fill="#f3efed"/>
<circle cx="30.7" cy="33.3" r="2.2" fill="#f3efed"/>
<circle cx="28.5" cy="33.5" r="2.2" fill="#f3efed"/>
<circle cx="29.5" cy="33.5" r="2.2" fill="#f3efed"/>
<circle cx="29.8" cy="33.5" r="2.2" fill="#f3efed"/>
<circle cx="30.1" cy="33.6" r="2.2" fill="#f3efed"/>
<circle cx="10.8" cy="17.0" r="2.2" fill="#f3efed"/>
<circle cx="10.3" cy="16.7" r="2.2" fill="#f3efed"/>
<circle cx="11.2" cy="15.4" r="2.2" fill="#f3efed"/>
<circle cx="16.0" cy="17.9" r="2.2" fill="#f3efed"/>
<circle cx="28.4" cy="19.7" r="2.2" fill="#f3efed"/>
<circle cx="15.3" cy="27.7" r="2.2" fill="#f3efed"/>
<circle cx="12.7" cy="24.1" r="2.2" fill="#f3efed"/>
<circle cx="23.3" cy="31.5" r="2.2" fill="#f3efed"/>
<circle cx="30.3" cy="21.6" r="2.2" fill="#f3efed"/>
<circle cx="10.5" cy="15.2" r="2.2" fill="#f3efed"/>
<circle cx="29.4" cy="20.7" r="2.2" fill="#f3efed"/>
<circle cx="31.5" cy="24.8" r="2.2" fill="#f3efed"/>
<circle cx="28.5" cy="26.1" r="2.2" fill="#f3efed"/>
<circle cx="30.9" cy="20.7" r="2.2" fill="#f3efed"/>
<circle cx="29.4" cy="25.5" r="2.2" fill="#f3efed"/>
<circle cx="10.9" cy="15.2" r="2.2" fill="#f3efed"/>
<circle cx="29.3" cy="21.9" r="2.2" fill="#f3efed"/>
<circle cx="9.6" cy="36.9" r="2.2" fill="#f3efed"/>
<circle cx="7.4" cy="35.5" r="2.2" fill="#f3efed"/>
<circle cx="7.8" cy="35.4" r="2.2" fill="#f3efed"/>
<circle cx="7.9" cy="36.0" r="2.2" fill="#f3efed"/>
<circle cx="7.0" cy="34.5" r="2.2" fill="#f3efed"/>
<circle cx="5.9" cy="23.2" r="2.2" fill="#f3efed"/>
<circle cx="5.7" cy="22.5" r="2.2" fill="#f3efed"/>
<circle cx="31.7" cy="27.4" r="2.2" fill="#f3efed"/>
<circle cx="28.9" cy="20.8" r="2.2" fill="#f3efed"/>
<circle cx="36.3" cy="24.3" r="2.2" fill="#f3efed"/>
<circle cx="27.0" cy="19.0" r="2.2" fill="#f3efed"/>
<circle cx="25.0" cy="16.7" r="2.2" fill="#f3efed"/>
<circle cx="25.4" cy="16.1" r="2.2" fill="#f3efed"/>
<circle cx="25.2" cy="15.6" r="2.2" fill="#f3efed"/>
<circle cx="25.8" cy="17.7" r="2.2" fill="#f3efed"/>
<circle cx="25.9" cy="15.9" r="2.2" fill="#f3efed"/>
<circle cx="24.3" cy="15.2" r="2.2" fill="#f3efed"/>
<circle cx="27.2" cy="17.6" r="2.2" fill="#f3efed"/>
<circle cx="24.8" cy="16.1" r="2.2" fill="#f3efed"/>
<circle cx="24.5" cy="15.2" r="2.2" fill="#f3efed"/>
<circle cx="24.4" cy="15.4" r="2.2" fill="#f3efed"/>
<circle cx="26.8" cy="19.8" r="2.2" fill="#f3efed"/>
<circle cx="25.8" cy="18.8" r="2.2" fill="#f3efed"/>
<circle cx="24.1" cy="19.0" r="2.2" fill="#f3efed"/>
<circle cx="8.1" cy="31.5" r="2.2" fill="#f3efed"/>
<circle cx="18.9" cy="27.0" r="2.2" fill="#f3efed"/>
<circle cx="8.0" cy="34.6" r="2.2" fill="#f3efed"/>
<circle cx="7.2" cy="32.0" r="2.2" fill="#f3efed"/>
<circle cx="20.2" cy="24.7" r="2.2" fill="#f3efed"/>
<circle cx="20.8" cy="24.7" r="2.2" fill="#f3efed"/>
<circle cx="8.0" cy="34.9" r="2.2" fill="#f3efed"/>
<circle cx="6.9" cy="30.6" r="2.2" fill="#f3efed"/>
<circle cx="20.7" cy="24.9" r="2.2" fill="#f3efed"/>
<circle cx="7.4" cy="32.3" r="2.2" fill="#f3efed"/>
<circle cx="20.4" cy="23.7" r="2.2" fill="#f3efed"/>
<circle cx="7.2" cy="31.7" r="2.2" fill="#f3efed"/>
<circle cx="7.6" cy="33.7" r="2.2" fill="#f3efed"/>
<circle cx="8.2" cy="31.2" r="2.2" fill="#f3efed"/>
<circle cx="7.8" cy="29.5" r="2.2" fill="#f3efed"/>
<circle cx="6.7" cy="31.2" r="2.2" fill="#f3efed"/>
<circle cx="7.7" cy="31.3" r="2.2" fill="#f3efed"/>
<circle cx="7.1" cy="30.2" r="2.2" fill="#f3efed"/>
<circle cx="32.9" cy="30.1" r="2.2" fill="#f3efed"/>
<circle cx="32.9" cy="25.3" r="2.2" fill="#f3efed"/>
<circle cx="37.0" cy="27.0" r="2.2" fill="#f3efed"/>
<circle cx="37.4" cy="26.8" r="2.2" fill="#f3efed"/>
<circle cx="19.9" cy="30.3" r="2.2" fill="#f3efed"/>
<circle cx="33.4" cy="24.1" r="2.2" fill="#f3efed"/>
<circle cx="32.7" cy="30.1" r="2.2" fill="#f3efed"/>
<circle cx="32.4" cy="28.9" r="2.2" fill="#f3efed"/>
<circle cx="24.0" cy="31.6" r="2.2" fill="#f3efed"/>
<circle cx="33.7" cy="27.0" r="2.2" fill="#f3efed"/>
<circle cx="37.3" cy="30.2" r="2.2" fill="#f3efed"/>
<circle cx="36.6" cy="26.9" r="2.2" fill="#f3efed"/>
<circle cx="35.7" cy="25.0" r="2.2" fill="#f3efed"/>
<circle cx="35.8" cy="25.5" r="2.2" fill="#f3efed"/>
<circle cx="36.6" cy="25.2" r="2.2" fill="#f3efed"/>
<circle cx="27.4" cy="20.0" r="2.2" fill="#f3efed"/>
<circle cx="21.6" cy="20.9" r="2.2" fill="#f3efed"/>
<circle cx="22.7" cy="15.6" r="2.2" fill="#f3efed"/>
<circle cx="21.5" cy="14.1" r="2.2" fill="#f3efed"/>
<circle cx="42.0" cy="29.5" r="2.2" fill="#f3efed"/>
<circle cx="21.5" cy="27.8" r="2.2" fill="#f3efed"/>
<circle cx="20.2" cy="14.7" r="2.2" fill="#f3efed"/>
<circle cx="21.9" cy="20.3" r="2.2" fill="#f3efed"/>
<circle cx="8.6" cy="36.5" r="2.2" fill="#f3efed"/>
<circle cx="26.6" cy="21.5" r="2.2" fill="#f3efed"/>
<circle cx="28.2" cy="22.0" r="2.2" fill="#f3efed"/>
<circle cx="22.2" cy="20.9" r="2.2" fill="#f3efed"/>
<circle cx="14.5" cy="11.7" r="2.2" fill="#f3efed"/>
<circle cx="23.0" cy="21.9" r="2.2" fill="#f3efed"/>
<circle cx="28.4" cy="21.9" r="2.2" fill="#f3efed"/>
<circle cx="37.9" cy="32.6" r="2.2" fill="#f3efed"/>
<circle cx="22.7" cy="22.6" r="2.2" fill="#f3efed"/>
<circle cx="21.1" cy="26.4" r="2.2" fill="#f3efed"/>
<circle cx="23.3" cy="14.8" r="2.2" fill="#f3efed"/>
<circle cx="20.8" cy="21.9" r="2.2" fill="#f3efed"/>
<circle cx="36.0" cy="32.0" r="2.2" fill="#f3efed"/>
<circle cx="19.8" cy="28.2" r="2.2" fill="#f3efed"/>
<circle cx="20.9" cy="19.0" r="2.2" fill="#f3efed"/>
<circle cx="22.8" cy="21.4" r="2.2" fill="#f3efed"/>
<circle cx="23.3" cy="24.2" r="2.2" fill="#f3efed"/>
<circle cx="12.7" cy="15.2" r="2.2" fill="#f3efed"/>
<circle cx="7.8" cy="35.6" r="2.2" fill="#f3efed"/>
<circle cx="27.3" cy="21.0" r="2.2" fill="#f3efed"/>
<circle cx="24.6" cy="21.9" r="2.2" fill="#f3efed"/>
<circle cx="20.0" cy="15.0" r="2.2" fill="#f3efed"/>
<circle cx="23.3" cy="20.3" r="2.2" fill="#f3efed"/>
<circle cx="22.6" cy="22.5" r="2.2" fill="#f3efed"/>
<circle cx="26.4" cy="18.5" r="2.2" fill="#f3efed"/>
<circle cx="19.1" cy="14.7" r="2.2" fill="#f3efed"/>
</svg>